<?xml version="1.0" encoding="UTF-8"?><svg id="Layer_1" xmlns="http://www.w3.org/2000/svg" viewBox="0 0 1080 360"><defs><style>.cls-1{fill:#dae5df;}</style></defs><path class="cls-1" d="m472.07,222.11c.44,1.03.58,2.64-1.61,3.23l-14.51,3.66c-2.2.44-2.79-1.03-3.23-2.05-5.72-11.14-15.83-18.47-30.93-18.47-19.49,0-34,15.68-34,35.47s14.36,35.18,34.3,35.18c14.07,0,25.21-7.91,30.34-19.64h-28.15c-1.76,0-3.22-1.47-3.22-3.08v-9.67c0-1.76,1.46-3.08,3.22-3.08h44.12c1.76,0,3.23,1.32,3.23,3.08v45c0,1.76-1.47,3.23-3.23,3.23h-11.58c-1.76,0-3.23-1.47-3.23-3.23v-10.55c-6.59,9.24-17.15,15.83-34.15,15.83-29.91,0-52.18-23.3-52.18-53.35s23.89-53.35,54.52-53.35c22.72,0,42.95,12.02,50.28,31.81Z"/><path class="cls-1" d="m556.7,294.96c-2.49,0-3.82-.88-5.13-3.23l-21.69-36.06h-22.72v36.06c0,1.76-1.32,3.23-3.07,3.23h-13.48c-1.76,0-3.08-1.47-3.08-3.23v-96.3c0-1.61.88-3.08,3.08-3.08h45.14c21.69,0,35.47,13.34,35.47,30.93,0,9.38-4.84,23.89-21.25,29.02l23.89,38.55c1.17,1.76.14,4.1-2.2,4.1h-14.95Zm-23.16-55.26c10.11,0,17-6.16,17-15.39s-6.75-14.66-16.71-14.66h-26.68v30.05h26.39Z"/><path class="cls-1" d="m634.64,297.01c-30.05,0-53.94-23.3-53.94-53.35s23.89-53.35,53.94-53.35,53.94,23.3,53.94,53.35-23.74,53.35-53.94,53.35Zm0-88.53c-19.5,0-33.42,15.39-33.42,35.18s13.92,35.18,33.42,35.18,33.56-15.39,33.56-35.18-14.07-35.18-33.56-35.18Z"/><path class="cls-1" d="m786.46,258.32c0,26.68-20.23,38.7-42.5,38.7s-42.36-12.02-42.36-38.55v-63.03c0-1.61,1.32-3.08,3.07-3.08h13.34c1.76,0,3.23,1.47,3.23,3.08v61.71c0,13.63,8.21,21.98,22.72,21.98s22.86-8.35,22.86-21.98v-61.71c0-1.61,1.46-3.08,3.23-3.08h13.33c1.61,0,3.08,1.47,3.08,3.08v62.88Z"/><path class="cls-1" d="m820.33,291.73c0,1.76-1.32,3.23-3.07,3.23h-13.48c-1.76,0-3.08-1.47-3.08-3.23v-96.3c0-1.61,1.32-3.08,3.08-3.08h38.55c24.04,0,36.64,15.54,36.64,33.86s-12.61,33.86-36.64,33.86h-21.99v31.66Zm20.67-48.96c9.96,0,17.59-6.16,17.59-16.56s-7.62-16.56-17.59-16.56h-20.67v33.12h20.67Z"/><path class="cls-1" d="m421.62,173.77c-30.27,0-54.34-23.48-54.34-53.75s24.07-53.75,54.34-53.75,54.34,23.48,54.34,53.75-23.92,53.75-54.34,53.75Zm0-89.19c-19.64,0-33.67,15.51-33.67,35.44s14.03,35.44,33.67,35.44,33.82-15.5,33.82-35.44-14.18-35.44-33.82-35.44Z"/><path class="cls-1" d="m631.13,131.84l-36.65-59.54c-1.65-2.24-.15-4.64,2.09-4.64h17.2c1.65,0,2.84.75,3.89,2.39l23.64,39.49h.45l23.48-39.49c1.05-1.64,2.24-2.39,3.74-2.39h16.6c2.24,0,3.89,2.09,2.24,4.64l-36.65,59.54v37.25c0,1.79-1.5,3.29-3.14,3.29h-13.76c-1.79,0-3.14-1.5-3.14-3.29v-37.25Z"/><path class="cls-1" d="m794.72,98.03c.45,1.05.6,2.69-1.65,3.29l-14.81,3.74c-2.24.45-2.84-1.05-3.29-2.09-5.83-11.37-16.16-18.85-31.56-18.85-19.9,0-34.7,16.01-34.7,36.2s14.66,35.9,35,35.9c14.36,0,25.73-8.08,30.97-20.04h-28.72c-1.79,0-3.29-1.5-3.29-3.14v-9.87c0-1.79,1.5-3.14,3.29-3.14h45.03c1.79,0,3.29,1.35,3.29,3.14v45.93c0,1.79-1.5,3.29-3.29,3.29h-11.82c-1.79,0-3.29-1.5-3.29-3.29v-10.77c-6.73,9.42-17.5,16.16-34.85,16.16-30.52,0-53.25-23.78-53.25-54.45s24.38-54.45,55.65-54.45c23.19,0,43.83,12.27,51.31,32.46Z"/><path class="cls-1" d="m887.68,67.66c1.79,0,3.14,1.5,3.14,3.29v11.97c0,1.79-1.35,3.14-3.14,3.14h-56.84v24.68h29.62c1.8,0,3.14,1.5,3.14,3.29v11.37c0,1.8-1.35,3.29-3.14,3.29h-29.62v25.28h57.74c1.8,0,3.29,1.35,3.29,3.14v11.97c0,1.79-1.5,3.29-3.29,3.29h-74.65c-1.79,0-3.14-1.5-3.14-3.29v-98.28c0-1.65,1.35-3.14,3.14-3.14h73.75Z"/><path class="cls-1" d="m930.59,99.37v69.86c0,1.79-1.35,3.14-3.14,3.14h-13.76c-1.79,0-3.14-1.35-3.14-3.14v-98.43c0-1.65,1.35-3.14,3.14-3.14h17.8c1.8,0,3.44.6,4.64,2.54l43.83,68.81v-68.21c0-1.65,1.35-3.14,2.99-3.14h13.76c1.65,0,3.29,1.5,3.29,3.14v98.43c0,1.79-1.65,3.14-3.29,3.14h-14.81c-2.99,0-5.09-1.05-6.43-3.14l-44.88-69.86Z"/><path class="cls-1" d="m528.68,117.37c28.41,0,51.42-20.43,54.65-47.82.12-1.01-.69-1.89-1.71-1.89h-17.66c-.85,0-1.55.63-1.67,1.47-2.59,17.11-15.81,29.69-33.61,29.69s-31.14-12.58-33.76-29.69c-.13-.84-.83-1.47-1.67-1.47h-17.51c-1.01,0-1.82.88-1.71,1.89,3.21,27.39,26.1,47.82,54.65,47.82Z"/><path class="cls-1" d="m528.68,121.08c-28.98,0-52.34,21.24-54.82,49.45-.09.99.72,1.84,1.71,1.84h17.61c.87,0,1.58-.67,1.68-1.53,2.02-17.88,15.5-31.21,33.82-31.21s31.93,13.33,33.97,31.21c.1.87.81,1.53,1.68,1.53h17.46c.99,0,1.8-.85,1.71-1.84-2.47-28.21-25.71-49.45-54.82-49.45Z"/><path class="cls-1" d="m199.02,175.56c61.68,0,111.62-44.34,118.62-103.8.26-2.18-1.51-4.1-3.71-4.1h-38.32c-1.84,0-3.36,1.37-3.63,3.19-5.63,37.14-34.32,64.45-72.96,64.45s-67.59-27.31-73.27-64.45c-.28-1.82-1.79-3.19-3.63-3.19h-38.01c-2.2,0-3.96,1.92-3.71,4.1,6.96,59.46,56.65,103.8,118.62,103.8Z"/><path class="cls-1" d="m199.02,183.62c-62.9,0-113.6,46.1-119.01,107.33-.19,2.15,1.56,4,3.72,4h38.22c1.9,0,3.44-1.45,3.65-3.33,4.39-38.81,33.65-67.74,73.42-67.74s69.31,28.93,73.74,67.74c.21,1.88,1.75,3.33,3.65,3.33h37.9c2.16,0,3.91-1.85,3.72-4-5.37-61.24-55.8-107.33-119-107.33Z"/></svg>